<svg width="776" height="306" viewBox="0 0 776 306" fill="none" xmlns="http://www.w3.org/2000/svg">
<path d="M125.673 243.05L101.497 240.662C98.6144 240.366 95.9546 242.279 95.2859 245.096L89.8177 268.718C88.8519 272.825 83.5918 274.041 80.932 270.779L65.5379 252.036C63.6954 249.797 60.4858 249.263 58.0192 250.805L37.4095 263.632C33.8285 265.856 29.237 263.009 29.653 258.812L32.0602 234.686C32.3425 231.81 30.4406 229.155 27.6025 228.518L3.94669 223.046C-0.169292 222.082 -1.4026 216.833 1.86642 214.179L20.6632 198.816C22.8921 196.992 23.4419 193.774 21.9114 191.313L9.05824 170.746C6.82937 167.172 9.68232 162.59 13.8875 163.005L38.0485 165.408C38.9846 165.497 39.891 165.363 40.7231 165.052C45.9089 193.478 70.8426 215.039 100.843 215.039C106.415 215.039 111.809 214.297 116.921 212.903C117.04 213.556 117.292 214.208 117.664 214.787L130.502 235.354C132.731 238.927 129.878 243.495 125.688 243.079L125.673 243.05Z" fill="#F5B702"/>
<path d="M161.929 154.005C161.929 182.134 142.85 205.83 116.891 212.859C116.46 210.798 117.173 208.618 118.882 207.224L137.664 191.877C140.933 189.193 139.715 183.958 135.584 183.009L111.928 177.537C109.09 176.885 107.203 174.245 107.47 171.339L109.878 147.228C110.294 143.031 105.702 140.184 102.121 142.409L81.5114 155.235C79.0597 156.763 75.8352 156.244 73.9927 154.005L58.6135 135.246C55.9239 131.999 50.6787 133.215 49.7277 137.322L44.2447 160.944C43.7989 162.842 42.4318 164.355 40.7082 165.022C40.0395 161.463 39.6978 157.786 39.6978 154.019C39.6978 120.329 67.0535 93 100.813 93C134.573 93 161.929 120.314 161.929 154.019V154.005Z" fill="#7679EC"/>
<path d="M294.184 239C285.828 240.567 277.621 241.238 269.564 241.014C261.581 240.865 254.419 239.485 248.078 236.874C241.811 234.188 237.036 229.898 233.753 224.004C230.769 218.483 229.202 212.888 229.053 207.218C228.904 201.473 228.829 194.983 228.829 187.746V84.5662H259.268V185.955C259.268 190.655 259.306 194.908 259.38 198.713C259.53 202.443 260.313 205.427 261.73 207.666C264.416 211.918 268.706 214.231 274.6 214.604C280.494 214.977 287.022 214.679 294.184 213.709V239ZM208.238 141.64V118.139H294.184V141.64H208.238ZM355.519 242.357C343.358 242.357 332.689 239.634 323.513 234.188C314.336 228.742 307.174 221.244 302.026 211.694C296.953 202.07 294.417 191.029 294.417 178.569C294.417 165.961 297.028 154.882 302.25 145.333C307.473 135.708 314.672 128.211 323.848 122.839C333.025 117.467 343.582 114.781 355.519 114.781C367.679 114.781 378.348 117.505 387.524 122.951C396.776 128.397 403.975 135.932 409.123 145.556C414.271 155.106 416.844 166.11 416.844 178.569C416.844 191.103 414.233 202.182 409.011 211.806C403.863 221.356 396.664 228.854 387.413 234.3C378.236 239.671 367.605 242.357 355.519 242.357ZM355.519 213.932C365.292 213.932 372.566 210.65 377.341 204.085C382.19 197.445 384.615 188.94 384.615 178.569C384.615 167.826 382.153 159.246 377.229 152.83C372.379 146.414 365.143 143.206 355.519 143.206C348.879 143.206 343.432 144.698 339.18 147.683C334.927 150.667 331.757 154.807 329.668 160.104C327.653 165.401 326.646 171.556 326.646 178.569C326.646 189.387 329.071 198.004 333.92 204.42C338.844 210.762 346.044 213.932 355.519 213.932ZM487.336 242.357C475.325 242.357 465.29 239.56 457.233 233.964C449.176 228.369 443.095 220.759 438.992 211.135C434.963 201.511 432.949 190.655 432.949 178.569C432.949 166.483 434.963 155.628 438.992 146.004C443.021 136.38 448.952 128.77 456.785 123.175C464.619 117.579 474.28 114.781 485.77 114.781C497.334 114.781 507.405 117.542 515.985 123.063C524.565 128.584 531.205 136.156 535.905 145.78C540.679 155.33 543.067 166.259 543.067 178.569C543.067 190.655 540.717 201.511 536.017 211.135C531.391 220.759 524.9 228.369 516.545 233.964C508.189 239.56 498.453 242.357 487.336 242.357ZM427.801 292.716V118.139H454.659V200.951H458.464V292.716H427.801ZM482.412 215.275C488.978 215.275 494.349 213.634 498.527 210.351C502.705 207.069 505.801 202.667 507.816 197.146C509.83 191.551 510.837 185.358 510.837 178.569C510.837 171.855 509.793 165.737 507.704 160.216C505.615 154.621 502.369 150.182 497.968 146.899C493.641 143.542 488.082 141.863 481.293 141.863C474.952 141.863 469.804 143.393 465.85 146.452C461.97 149.51 459.135 153.8 457.345 159.321C455.554 164.842 454.659 171.258 454.659 178.569C454.659 185.881 455.554 192.297 457.345 197.818C459.135 203.338 462.045 207.628 466.074 210.687C470.177 213.746 475.623 215.275 482.412 215.275ZM587.836 242.357C579.181 242.357 571.833 240.716 565.79 237.433C559.821 234.076 555.27 229.637 552.137 224.116C549.078 218.521 547.548 212.366 547.548 205.651C547.548 200.056 548.406 194.945 550.122 190.32C551.838 185.694 554.599 181.628 558.404 178.122C562.283 174.541 567.468 171.556 573.959 169.169C578.435 167.528 583.77 166.073 589.962 164.805C596.154 163.536 603.167 162.343 611.001 161.224C618.834 160.03 627.451 158.724 636.851 157.307L625.884 163.35C625.884 156.188 624.169 150.928 620.737 147.571C617.305 144.213 611.56 142.535 603.503 142.535C599.026 142.535 594.364 143.617 589.514 145.78C584.665 147.944 581.27 151.786 579.33 157.307L551.801 148.578C554.86 138.581 560.604 130.449 569.035 124.182C577.465 117.915 588.955 114.781 603.503 114.781C614.171 114.781 623.646 116.423 631.928 119.705C640.209 122.988 646.476 128.658 650.728 136.716C653.116 141.192 654.533 145.668 654.981 150.145C655.428 154.621 655.652 159.62 655.652 165.14V239H629.018V214.156L632.823 219.304C626.929 227.436 620.55 233.33 613.686 236.986C606.897 240.567 598.28 242.357 587.836 242.357ZM594.326 218.409C599.922 218.409 604.622 217.439 608.427 215.499C612.306 213.485 615.365 211.209 617.603 208.673C619.916 206.136 621.483 204.01 622.303 202.294C623.87 199.011 624.765 195.206 624.989 190.879C625.288 186.478 625.437 182.822 625.437 179.912L634.39 182.15C625.362 183.643 618.051 184.911 612.455 185.955C606.86 186.925 602.346 187.82 598.914 188.641C595.483 189.462 592.461 190.357 589.85 191.327C586.866 192.521 584.441 193.826 582.576 195.244C580.785 196.587 579.442 198.079 578.547 199.72C577.726 201.361 577.316 203.189 577.316 205.204C577.316 207.964 577.988 210.351 579.33 212.366C580.748 214.306 582.725 215.798 585.262 216.842C587.798 217.887 590.82 218.409 594.326 218.409ZM660.13 239V235.195L719.442 144.549H666.845V118.139H766.443V121.944L707.356 212.59H764.205V239H660.13Z" fill="white"/>
</svg>
